<svg width="200" height="200" viewBox="0 0 200 200" fill="none" xmlns="http://www.w3.org/2000/svg">
<path d="M0 99.9999C0 72.3958 9.76561 48.8281 29.297 29.2968C48.8281 9.76562 72.3958 0 100 0C127.604 0 151.172 9.76562 170.703 29.2968C190.234 48.8281 200 72.3958 200 99.9999C200 127.604 190.234 151.172 170.703 170.703C151.172 190.234 127.604 200 100 200C72.3958 200 48.8281 190.234 29.297 170.703C9.76561 151.172 0 127.604 0 99.9999ZM10.9375 99.9999C10.9375 124.479 19.6614 145.443 37.1093 162.891C54.5572 180.338 75.5208 189.063 100 189.063C124.479 189.063 145.443 180.339 162.891 162.891C180.339 145.443 189.063 124.479 189.063 99.9999C189.063 75.5208 180.339 54.5572 162.891 37.1093C145.443 19.6614 124.479 10.9375 100 10.9375C75.5208 10.9375 54.5574 19.6614 37.1093 37.1093C19.6614 54.5572 10.9375 75.5208 10.9375 99.9999ZM39.0627 121.484C38.5418 120.963 38.5418 120.443 39.0627 119.922C40.1041 118.88 41.4064 118.489 42.9687 118.75C44.5312 119.01 45.4427 119.271 45.7031 119.531C47.526 120.312 49.5443 122.07 51.7577 124.805C53.971 127.539 55.7289 129.427 57.0312 130.469C63.2812 135.677 69.6612 136.068 76.1716 131.64C76.6924 129.818 77.5389 128.255 78.7106 126.953C79.8822 125.651 80.9893 124.739 82.031 124.218C83.0728 123.698 84.8957 122.916 87.4999 121.875C78.906 121.093 71.9399 119.596 66.6014 117.382C61.2629 115.169 57.031 112.369 53.906 108.984C49.7393 104.297 47.2002 98.1768 46.2887 90.6247C45.3771 83.0726 45.9631 76.1716 48.0466 69.9216C49.6091 66.0154 51.8227 62.4999 54.687 59.3747C52.6037 52.8643 52.9943 45.4425 55.8589 37.1091C64.1922 37.63 71.7443 40.4945 78.5151 45.7029C91.536 42.3175 105.078 42.1873 119.14 45.3123C120.963 44.0102 123.762 42.3827 127.538 40.4293C131.314 38.4762 136.067 37.3694 141.796 37.1089C142.838 39.9735 143.554 43.3589 143.945 47.2652C144.335 51.1714 144.14 54.8173 143.359 58.2027C149.348 64.4527 152.473 72.786 152.734 83.2026C152.734 91.536 151.302 98.437 148.437 103.906C145.572 109.374 140.494 113.932 133.203 117.577C128.255 119.921 121.744 121.353 113.671 121.874C117.317 123.697 119.987 125.585 121.679 127.538C123.372 129.492 124.479 132.551 125 136.718V149.023L125.39 160.937C126.172 162.239 127.083 163.346 128.125 164.258C129.167 165.169 130.078 165.82 130.859 166.211C131.64 166.601 131.901 167.187 131.64 167.969C131.38 168.75 130.338 169.14 128.515 169.14C124.088 169.14 120.573 167.578 117.969 164.453C117.187 163.151 116.797 161.588 116.797 159.765V141.015C116.797 138.932 116.276 137.434 115.234 136.523C114.193 135.611 113.151 135.026 112.109 134.765V159.374C112.109 163.802 112.63 166.666 113.672 167.968C114.713 169.27 115.364 170.573 115.625 171.874C115.885 172.135 115.69 172.33 115.039 172.46C114.388 172.59 113.281 172.395 111.719 171.874C108.333 171.093 105.989 169.335 104.687 166.601C103.385 163.867 102.734 160.937 102.734 157.812V133.594H97.6561V157.812C97.6561 160.937 97.0049 163.932 95.7028 166.797C93.8801 170.443 90.4945 172.396 85.5468 172.656C84.7655 172.396 84.3749 172.135 84.3749 171.875C84.6353 171.614 85.4166 170.313 86.7187 167.969C86.9791 167.448 87.3047 166.406 87.6953 164.844C88.0861 163.281 88.2814 161.458 88.2814 159.375V134.765C87.2397 135.026 86.263 135.612 85.3516 136.523C84.4401 137.435 83.9843 138.932 83.9843 141.016V159.766C83.9843 161.588 83.5937 163.151 82.8124 164.453C80.4687 167.578 76.953 169.141 72.2658 169.141C70.4428 169.141 69.4012 168.75 69.1408 167.969C68.8801 167.448 68.9453 166.992 69.3362 166.602C69.727 166.211 70.3128 165.755 71.0941 165.234C71.8753 164.714 72.3962 164.323 72.6566 164.063C73.6982 163.281 74.4793 162.24 75.0003 160.938C75.7816 159.896 75.9768 157.162 75.5862 152.734C75.1955 148.307 75.1303 145.443 75.3907 144.141C68.6197 146.484 61.7189 145.312 54.6874 140.625C52.6041 138.542 50.5208 135.547 48.4374 131.641C46.875 128.776 43.75 125.39 39.0627 121.484V121.484Z" fill="black"/>
</svg>
