<svg width="200" height="200" viewBox="0 0 200 200" fill="none" xmlns="http://www.w3.org/2000/svg">
<g clip-path="url(#clip0_6:8)">
<path d="M156.647 65.1207C152.173 57.4173 97.2548 25.6018 88.3108 25.6018C79.3696 25.6018 24.4294 57.3376 19.9809 65.1207C15.5318 72.9039 15.507 136.378 19.9809 144.162C24.4544 151.941 79.3757 183.677 88.3108 183.677C97.2455 183.677 152.174 151.902 156.644 144.158C161.114 136.415 161.117 72.8238 156.647 65.1207ZM106.826 153.488C105.603 153.488 94.1947 142.445 95.0933 141.542C95.3617 141.274 97.0263 141.086 100.512 140.977C100.512 132.88 100.694 119.802 100.802 114.327C100.815 113.704 100.666 113.268 100.666 112.521H75.9885C75.9885 114.713 75.8469 123.697 76.4118 135.022C76.4823 136.424 75.9239 136.862 74.6393 136.855C71.5115 136.847 68.3812 136.821 65.2507 136.831C63.985 136.834 63.4383 136.359 63.4785 134.945C63.7623 124.621 64.3926 109.004 63.4325 69.2853V68.3063C60.4469 68.1984 58.3751 68.0101 58.1032 67.7386C57.2015 66.8369 68.7672 55.7936 69.9867 55.7936C71.2094 55.7936 82.6977 66.84 81.8022 67.7386C81.5335 68.007 79.363 68.1984 76.6245 68.3063V69.2822C75.8775 77.2324 75.9981 93.8548 75.8129 101.82H100.592C100.592 100.415 100.713 91.0946 100.222 75.9974C100.191 74.9503 100.515 74.4008 101.521 74.3919C104.939 74.3671 108.36 74.3517 111.781 74.373C112.849 74.3795 113.191 74.9042 113.17 76.0341C112.043 135.093 112.966 130.971 112.966 140.974C115.705 141.082 118.159 141.271 118.428 141.543C119.317 142.441 108.048 153.488 106.826 153.488V153.488Z" fill="#2EC866"/>
</g>
<defs>
<clipPath id="clip0_6:8">
<rect width="200" height="200" fill="white"/>
</clipPath>
</defs>
</svg>
