<svg width="200" height="192" viewBox="0 0 200 192" fill="none" xmlns="http://www.w3.org/2000/svg">
<g clip-path="url(#clip0_6:2)">
<path d="M0 22.201C0 15.7659 2.25232 10.457 6.75676 6.27438C11.2612 2.09156 17.1172 0.000244141 24.3243 0.000244141C31.4029 0.000244141 37.1299 2.05932 41.5058 6.17785C46.0102 10.425 48.2625 15.9589 48.2625 22.7802C48.2625 28.9578 46.0747 34.1056 41.6988 38.2242C37.1944 42.4713 31.2741 44.5948 23.9382 44.5948H23.7452C16.6666 44.5948 10.9396 42.4713 6.56371 38.2242C2.18784 33.9771 0 28.636 0 22.201ZM2.50965 191.12V62.1624H45.3668V191.12H2.50965ZM69.112 191.12H111.969V119.112C111.969 114.608 112.484 111.133 113.514 108.688C115.315 104.312 118.05 100.611 121.718 97.5871C125.386 94.5626 129.987 93.0504 135.521 93.0504C149.936 93.0504 157.143 102.767 157.143 122.201V191.12H200V117.182C200 98.134 195.496 83.6875 186.486 73.8419C177.477 63.9964 165.573 59.0736 150.772 59.0736C134.17 59.0736 121.236 66.2165 111.969 80.5022V80.8883H111.776L111.969 80.5022V62.1624H69.112C69.3693 66.2807 69.4981 79.0863 69.4981 100.579C69.4981 122.072 69.3693 152.252 69.112 191.12Z" fill="#1E1C6A"/>
</g>
<defs>
<clipPath id="clip0_6:2">
<rect width="200" height="191.12" fill="white"/>
</clipPath>
</defs>
</svg>
