<svg width="200" height="200" viewBox="0 0 200 200" fill="none" xmlns="http://www.w3.org/2000/svg">
<g clip-path="url(#clip0_6:4)">
<path d="M200 37.9748C192.642 41.2415 184.733 43.4415 176.433 44.4332C184.908 39.3582 191.417 31.3165 194.475 21.7332C186.55 26.4332 177.767 29.8498 168.417 31.6915C160.942 23.7165 150.267 18.7332 138.467 18.7332C111.975 18.7332 92.5083 43.4498 98.4917 69.1082C64.4 67.3998 34.1667 51.0665 13.925 26.2415C3.175 44.6832 8.35 68.8081 26.6167 81.0248C19.9 80.8081 13.5667 78.9665 8.04167 75.8915C7.59167 94.8998 21.2167 112.683 40.95 116.641C35.175 118.208 28.85 118.575 22.4167 117.341C27.6333 133.641 42.7833 145.5 60.75 145.833C43.5 159.358 21.7667 165.4 0 162.833C18.1583 174.475 39.7333 181.266 62.9 181.266C139.083 181.266 182.125 116.925 179.525 59.2165C187.542 53.4248 194.5 46.1998 200 37.9748V37.9748Z" fill="#373666"/>
</g>
<defs>
<clipPath id="clip0_6:4">
<rect width="200" height="200" fill="white"/>
</clipPath>
</defs>
</svg>
