<svg width="16" height="16" viewBox="0 0 16 16" fill="none" xmlns="http://www.w3.org/2000/svg">
<path d="M9.669 0.864L8 0L6.331 0.864L4.473 1.146L3.631 2.826L2.294 4.146L2.6 6L2.294 7.854L3.631 9.174L4.473 10.854L6.331 11.136L8 12L9.669 11.136L11.527 10.854L12.369 9.174L13.706 7.854L13.4 6L13.706 4.146L12.369 2.826L11.527 1.146L9.669 0.864ZM10.865 2.057L11.549 3.422L12.635 4.494L12.387 6L12.635 7.506L11.549 8.578L10.865 9.943L9.355 10.172L8 10.874L6.645 10.172L5.135 9.943L4.451 8.578L3.365 7.506L3.614 6L3.364 4.494L4.451 3.422L5.135 2.057L6.645 1.828L8 1.126L9.356 1.828L10.865 2.057Z" fill="white"/>
<path d="M4 11.794V16L8 15L12 16V11.794L9.982 12.1L8 13.126L6.018 12.1L4 11.794Z" fill="white"/>
</svg>
